<svg width="34" height="41" viewBox="0 0 34 41" fill="none" xmlns="http://www.w3.org/2000/svg">
<path d="M28.0788 38.8952C25.9013 41.006 23.5239 40.6727 21.2353 39.6728C18.8134 38.6507 16.5914 38.6063 14.0362 39.6728C10.8366 41.0504 9.14791 40.6505 7.23704 38.8952C-3.60604 27.7188 -2.00624 10.6987 10.3033 10.0766C13.3029 10.2321 15.3916 11.7208 17.1469 11.8541C19.7688 11.3209 22.2796 9.78772 25.0792 9.98769C28.4344 10.2543 30.9674 11.5875 32.6338 13.9872C25.7014 18.1422 27.3456 27.2744 33.7004 29.8296C32.4339 33.1625 30.7896 36.4732 28.0566 38.9174L28.0788 38.8952ZM16.9247 9.94325C16.5914 4.98832 20.6131 0.89995 25.2348 0.5C25.8791 6.23261 20.0354 10.4987 16.9247 9.94325Z" fill="white"/>
</svg>
