<svg width="34" height="34" viewBox="0 0 34 34" fill="none" xmlns="http://www.w3.org/2000/svg">
<path d="M20.1247 15.8811C19.7648 15.8811 19.4595 15.7571 19.2088 15.5092C18.9564 15.2613 18.8302 14.9579 18.8302 14.5988C18.8302 14.2397 18.9546 13.9344 19.2034 13.6829C19.4522 13.4314 19.7556 13.3056 20.1138 13.3056C20.472 13.3056 20.7773 13.4295 21.0297 13.6774C21.2821 13.9253 21.4079 14.2288 21.407 14.5879C21.4061 14.9469 21.2821 15.2522 21.0352 15.5038C20.7882 15.7553 20.4847 15.8811 20.1247 15.8811ZM13.6041 15.8811C13.245 15.8811 12.9397 15.7571 12.6882 15.5092C12.4367 15.2613 12.3109 14.9579 12.3109 14.5988C12.3109 14.2397 12.4349 13.9344 12.6827 13.6829C12.9306 13.4314 13.2346 13.3056 13.5945 13.3056C13.9545 13.3056 14.2598 13.4295 14.5104 13.6774C14.761 13.9253 14.8868 14.2288 14.8877 14.5879C14.8886 14.9469 14.7647 15.2522 14.5159 15.5038C14.2671 15.7553 13.9632 15.8811 13.6041 15.8811ZM16.859 22.4277C15.7553 22.4277 14.7428 22.1524 13.8215 21.602C12.9001 21.0515 12.1601 20.3102 11.6014 19.3779H22.1165C21.5578 20.3102 20.8178 21.0515 19.8964 21.602C18.976 22.1524 17.9635 22.4277 16.859 22.4277ZM16.8603 27.5799C15.3438 27.5799 13.9222 27.2947 12.5952 26.7242C11.2683 26.1537 10.1105 25.3727 9.12167 24.3811C8.13287 23.3896 7.35185 22.2322 6.77862 20.9089C6.20539 19.5856 5.92014 18.164 5.92287 16.6438C5.92561 15.1237 6.21085 13.702 6.77862 12.3788C7.34638 11.0555 8.1274 9.89811 9.12167 8.90657C10.1159 7.91503 11.2733 7.13401 12.5939 6.56351C13.9144 5.99301 15.3361 5.70776 16.859 5.70776C18.3818 5.70776 19.8035 5.99301 21.124 6.56351C22.4446 7.13401 23.602 7.91503 24.5962 8.90657C25.5905 9.89811 26.3711 11.0555 26.9379 12.3788C27.5048 13.702 27.7905 15.1237 27.795 16.6438C27.7996 18.164 27.5143 19.5856 26.9393 20.9089C26.3642 22.2322 25.5832 23.3905 24.5962 24.3839C23.6092 25.3772 22.4518 26.1578 21.124 26.7255C19.7962 27.2933 18.3745 27.5781 16.859 27.5799M16.859 26.2129C19.5018 26.2129 21.7574 25.2788 23.6257 23.4105C25.4939 21.5423 26.428 19.2867 26.428 16.6438C26.428 14.001 25.4939 11.7454 23.6257 9.87714C21.7574 8.0089 19.5018 7.07477 16.859 7.07477C16.6111 7.07477 16.3636 7.08389 16.1167 7.10211C15.8688 7.11943 15.6327 7.15087 15.4086 7.19644C15.342 7.36777 15.3033 7.51586 15.2924 7.64072C15.2814 7.76466 15.276 7.91776 15.276 8.10003C15.276 8.68329 15.4851 9.18407 15.9034 9.60238C16.3217 10.0207 16.8252 10.2298 17.414 10.2298C17.6664 10.2298 17.8646 10.1957 18.0086 10.1273C18.1535 10.059 18.3171 10.0248 18.4994 10.0248C18.6525 10.0248 18.7801 10.0854 18.8821 10.2066C18.9842 10.3278 19.0352 10.47 19.0352 10.6331C19.0352 10.9439 18.8607 11.1558 18.5117 11.2688C18.1617 11.3818 17.7931 11.4383 17.4058 11.4383C16.4853 11.4383 15.6988 11.112 15.0463 10.4595C14.3938 9.80697 14.0675 9.02048 14.0675 8.10003V7.82116C14.0675 7.73823 14.0876 7.62796 14.1277 7.49034C12.1491 8.06905 10.5151 9.18908 9.22557 10.8505C7.93602 12.5118 7.29079 14.443 7.28988 16.6438C7.28988 19.2867 8.22401 21.5423 10.0923 23.4105C11.9605 25.2788 14.2161 26.2129 16.859 26.2129Z" fill="black"/>
</svg>
