<svg width="33" height="33" viewBox="0 0 33 33" fill="none" xmlns="http://www.w3.org/2000/svg">
<path d="M14.959 12.7633H26.8526C27.5083 12.7633 27.8362 12.7633 28.0287 12.9752C28.2213 13.1872 28.196 13.5205 28.1458 14.187L27.3246 25.0694C27.1498 27.386 27.0624 28.5445 26.3164 29.2486C25.5705 29.9528 24.4308 29.9528 22.1516 29.9528H16.1959C13.9165 29.9528 12.7769 29.9528 12.031 29.2486C10.921 28.2008 11.0989 26.0777 10.9922 24.6637" stroke="black" stroke-width="1.36005" stroke-linecap="round" stroke-linejoin="round"/>
<path d="M14.9585 12.643V19.8553C14.9585 22.122 14.9585 23.2553 14.184 23.9595C13.4094 24.6636 12.1628 24.6636 9.66946 24.6636C7.17616 24.6636 5.9295 24.6636 5.15494 23.9595C4.38037 23.2553 4.38037 22.122 4.38037 19.8553V18.6532C4.38037 15.2533 4.38037 13.5534 5.54222 12.4971C6.70408 11.4409 8.57405 11.4409 12.314 11.4409H13.6363C14.2596 11.4409 14.5712 11.4409 14.765 11.617C14.9585 11.793 14.9585 12.0763 14.9585 12.643Z" stroke="black" stroke-width="1.36005" stroke-linecap="round" stroke-linejoin="round"/>
<path d="M25.5367 12.7633C25.5367 7.65146 22.5616 3.50745 18.8917 3.50745C15.544 3.50745 12.7746 6.95555 12.314 11.4411" stroke="black" stroke-width="1.36005" stroke-linecap="round" stroke-linejoin="round"/>
<path d="M4.38037 19.3746H14.9585" stroke="black" stroke-width="1.36005" stroke-linecap="round" stroke-linejoin="round"/>
<path d="M14.959 18.0522H26.8594" stroke="black" stroke-width="1.36005" stroke-linecap="round" stroke-linejoin="round"/>
</svg>
