<svg width="32" height="30" viewBox="0 0 32 30" fill="none" xmlns="http://www.w3.org/2000/svg">
<path d="M0.747771 1.12936V0.373779C0.547378 0.373779 0.355192 0.453385 0.213493 0.595085C0.0717934 0.736784 -0.0078125 0.92897 -0.0078125 1.12936H0.747771ZM17.3706 1.12936H18.1262C18.1262 0.92897 18.0466 0.736784 17.9049 0.595085C17.7632 0.453385 17.571 0.373779 17.3706 0.373779V1.12936ZM17.3706 10.1964V9.44078C17.1702 9.44078 16.978 9.52039 16.8363 9.66209C16.6946 9.80379 16.615 9.99597 16.615 10.1964H17.3706ZM0.747771 1.88495H17.3706V0.373779H0.747771V1.88495ZM16.615 1.12936V25.308H18.1262V1.12936H16.615ZM1.50336 22.2857V1.12936H-0.0078125V22.2857H1.50336ZM17.3706 10.952H24.9265V9.44078H17.3706V10.952ZM30.2155 16.241V22.2857H31.7267V16.241H30.2155ZM18.1262 25.308V10.1964H16.615V25.308H18.1262ZM26.5283 26.9099C26.1033 27.3344 25.5271 27.5728 24.9265 27.5728C24.3258 27.5728 23.7496 27.3344 23.3246 26.9099L22.2547 27.9798C22.6055 28.3307 23.0221 28.6091 23.4805 28.799C23.9389 28.9889 24.4302 29.0867 24.9265 29.0867C25.4227 29.0867 25.914 28.9889 26.3724 28.799C26.8309 28.6091 27.2474 28.3307 27.5982 27.9798L26.5283 26.9099ZM23.3246 23.7062C23.7496 23.2817 24.3258 23.0433 24.9265 23.0433C25.5271 23.0433 26.1033 23.2817 26.5283 23.7062L27.5982 22.6363C27.2474 22.2854 26.8309 22.007 26.3724 21.8171C25.914 21.6272 25.4227 21.5294 24.9265 21.5294C24.4302 21.5294 23.9389 21.6272 23.4805 21.8171C23.0221 22.007 22.6055 22.2854 22.2547 22.6363L23.3246 23.7062ZM8.39428 26.9099C7.96926 27.3344 7.39313 27.5728 6.79244 27.5728C6.19175 27.5728 5.61562 27.3344 5.1906 26.9099L4.1207 27.9798C4.47152 28.3307 4.88804 28.6091 5.34646 28.799C5.80489 28.9889 6.29623 29.0867 6.79244 29.0867C7.28865 29.0867 7.78 28.9889 8.23842 28.799C8.69684 28.6091 9.11336 28.3307 9.46419 27.9798L8.39428 26.9099ZM5.1906 23.7062C5.61562 23.2817 6.19175 23.0433 6.79244 23.0433C7.39313 23.0433 7.96926 23.2817 8.39428 23.7062L9.46419 22.6363C9.11336 22.2854 8.69684 22.007 8.23842 21.8171C7.78 21.6272 7.28865 21.5294 6.79244 21.5294C6.29623 21.5294 5.80489 21.6272 5.34646 21.8171C4.88804 22.007 4.47152 22.2854 4.1207 22.6363L5.1906 23.7062ZM26.5283 23.7062C26.9726 24.1475 27.1932 24.7262 27.1932 25.308H28.7044C28.7044 24.3424 28.3356 23.3737 27.5982 22.6363L26.5283 23.7062ZM27.1932 25.308C27.1932 25.8898 26.9726 26.4686 26.5283 26.9099L27.5982 27.9798C27.9494 27.6292 28.2279 27.2127 28.4177 26.7542C28.6075 26.2957 28.705 25.8043 28.7044 25.308H27.1932ZM21.9041 24.5525H17.3706V26.0636H21.9041V24.5525ZM23.3246 26.9099C23.1137 26.6999 22.9463 26.4503 22.8322 26.1754C22.7181 25.9004 22.6595 25.6057 22.6597 25.308H21.1485C21.1485 26.2737 21.5173 27.2423 22.2547 27.9798L23.3246 26.9099ZM22.6597 25.308C22.6597 24.7262 22.8803 24.1475 23.3246 23.7062L22.2547 22.6363C21.9035 22.9869 21.625 23.4034 21.4352 23.8619C21.2454 24.3203 21.1479 24.8118 21.1485 25.308H22.6597ZM5.1906 26.9099C4.97965 26.6999 4.81231 26.4503 4.69819 26.1754C4.58408 25.9004 4.52546 25.6057 4.52569 25.308H3.01452C3.01452 26.2737 3.38325 27.2423 4.1207 27.9798L5.1906 26.9099ZM4.52569 25.308C4.52569 24.7262 4.74632 24.1475 5.1906 23.7062L4.1207 22.6363C3.7695 22.9869 3.491 23.4034 3.30118 23.8619C3.11135 24.3203 3.01394 24.8118 3.01452 25.308H4.52569ZM17.3706 24.5525H9.81478V26.0636H17.3706V24.5525ZM8.39428 23.7062C8.83856 24.1475 9.05919 24.7262 9.05919 25.308H10.5704C10.5704 24.3424 10.2016 23.3737 9.46419 22.6363L8.39428 23.7062ZM9.05919 25.308C9.05919 25.8898 8.83856 26.4686 8.39428 26.9099L9.46419 27.9798C9.81538 27.6292 10.0939 27.2127 10.2837 26.7542C10.4735 26.2957 10.5709 25.8043 10.5704 25.308H9.05919ZM30.2155 22.2857C30.2155 22.8869 29.9767 23.4634 29.5516 23.8885C29.1265 24.3136 28.55 24.5525 27.9488 24.5525V26.0636C28.9508 26.0636 29.9117 25.6656 30.6202 24.9571C31.3287 24.2486 31.7267 23.2877 31.7267 22.2857H30.2155ZM24.9265 10.952C26.3292 10.952 27.6745 11.5092 28.6664 12.5011C29.6583 13.493 30.2155 14.8383 30.2155 16.241H31.7267C31.7267 14.4375 31.0103 12.7078 29.735 11.4325C28.4597 10.1572 26.73 9.44078 24.9265 9.44078V10.952ZM-0.0078125 22.2857C-0.0078125 23.2877 0.390217 24.2486 1.09871 24.9571C1.80721 25.6656 2.76814 26.0636 3.77011 26.0636V24.5525C3.16893 24.5525 2.59237 24.3136 2.16727 23.8885C1.74217 23.4634 1.50336 22.8869 1.50336 22.2857H-0.0078125Z" fill="black"/>
<path d="M0.747559 8.68518H5.28106ZM0.747559 14.7299H8.3034Z" fill="black"/>
<path d="M0.747559 8.68518H5.28106M0.747559 14.7299H8.3034" stroke="black" stroke-width="0.9067" stroke-linecap="round" stroke-linejoin="round"/>
</svg>
