<svg width="51" height="50" viewBox="0 0 51 50" fill="none" xmlns="http://www.w3.org/2000/svg">
<path d="M45.9285 20.9198H44.2503V20.8334H25.5003V29.1667H37.2743C35.5566 34.0177 30.941 37.5 25.5003 37.5C18.5972 37.5 13.0003 31.9031 13.0003 25C13.0003 18.0969 18.5972 12.5 25.5003 12.5C28.6868 12.5 31.5857 13.7021 33.793 15.6656L39.6857 9.77294C35.9649 6.30523 30.9878 4.16669 25.5003 4.16669C13.9951 4.16669 4.66699 13.4948 4.66699 25C4.66699 36.5052 13.9951 45.8334 25.5003 45.8334C37.0055 45.8334 46.3337 36.5052 46.3337 25C46.3337 23.6031 46.1899 22.2396 45.9285 20.9198Z" fill="#FFC107"/>
<path d="M7.06836 15.3031L13.9132 20.3229C15.7652 15.7375 20.2507 12.5 25.4996 12.5C28.6861 12.5 31.585 13.7021 33.7923 15.6656L39.685 9.77294C35.9642 6.30523 30.9871 4.16669 25.4996 4.16669C17.4975 4.16669 10.5579 8.68439 7.06836 15.3031Z" fill="#FF3D00"/>
<path d="M25.5 45.8333C30.8812 45.8333 35.7708 43.7739 39.4677 40.425L33.0198 34.9687C30.8579 36.6129 28.2161 37.5021 25.5 37.5C20.0812 37.5 15.4802 34.0448 13.7469 29.2229L6.95312 34.4573C10.401 41.2041 17.4031 45.8333 25.5 45.8333Z" fill="#4CAF50"/>
<path d="M45.9281 20.9198H44.25V20.8333H25.5V29.1666H37.274C36.4523 31.4754 34.9722 33.4929 33.0167 34.9698L33.0198 34.9677L39.4677 40.4239C39.0115 40.8385 46.3333 35.4166 46.3333 25C46.3333 23.6031 46.1896 22.2396 45.9281 20.9198Z" fill="#1976D2"/>
</svg>
