<svg width="33" height="34" viewBox="0 0 33 34" fill="none" xmlns="http://www.w3.org/2000/svg">
<path d="M18.7786 22.6427H14.221V19.4535H11.0317V14.8959H14.221V11.7067H18.7786V14.8959H21.9678V19.4535H18.7786V22.6427Z" stroke="black" stroke-width="1.40607" stroke-linecap="round" stroke-linejoin="round"/>
<path d="M6.93083 25.3768L4.37452 7.48669C4.32588 7.14615 4.40796 6.79981 4.60424 6.51731C4.80052 6.2348 5.09647 6.03706 5.43259 5.96384L15.9066 3.63583C16.2974 3.54896 16.7024 3.54896 17.0932 3.63583L27.5672 5.96521C28.2644 6.11968 28.7264 6.77995 28.6253 7.48806L26.069 25.3768C25.9733 26.0534 25.3855 30.1613 16.4999 30.1613C7.61434 30.1613 7.02652 26.0534 6.93083 25.3768Z" stroke="black" stroke-width="1.40607" stroke-linecap="round" stroke-linejoin="round"/>
</svg>
