<svg width="41" height="41" viewBox="0 0 41 41" fill="none" xmlns="http://www.w3.org/2000/svg">
<path d="M18.8716 14.5491H22.8482V10.5725H18.8716M20.8599 36.4208C12.0913 36.4208 4.95323 29.2827 4.95323 20.5141C4.95323 11.7456 12.0913 4.60747 20.8599 4.60747C29.6284 4.60747 36.7666 11.7456 36.7666 20.5141C36.7666 29.2827 29.6284 36.4208 20.8599 36.4208ZM20.8599 0.630798C18.2488 0.630798 15.6632 1.1451 13.2509 2.14433C10.8385 3.14356 8.64659 4.60815 6.80026 6.45449C3.07141 10.1833 0.976563 15.2407 0.976562 20.5141C0.976563 25.7875 3.07141 30.8449 6.80026 34.5738C8.64659 36.4201 10.8385 37.8847 13.2509 38.8839C15.6632 39.8832 18.2488 40.3975 20.8599 40.3975C26.1333 40.3975 31.1907 38.3026 34.9195 34.5738C38.6484 30.8449 40.7432 25.7875 40.7432 20.5141C40.7432 17.903 40.2289 15.3175 39.2297 12.9051C38.2305 10.4928 36.7659 8.30083 34.9195 6.45449C33.0732 4.60815 30.8813 3.14356 28.4689 2.14433C26.0566 1.1451 23.471 0.630798 20.8599 0.630798ZM18.8716 30.4558H22.8482V18.5258H18.8716V30.4558Z" fill="black"/>
</svg>
