<svg width="33" height="33" viewBox="0 0 33 33" fill="none" xmlns="http://www.w3.org/2000/svg">
<path d="M12.5333 20.129H20.4669M23.1114 6.24514H9.88871M23.1114 6.24514C24.1635 6.24514 25.1725 5.82721 25.9164 5.08328C26.6603 4.33936 27.0782 3.33039 27.0782 2.27832V1.61719H10.5498C9.32244 1.61719 8.1453 2.10477 7.27739 2.97268C6.40948 3.84059 5.9219 5.01773 5.9219 6.24514C5.9219 7.47255 6.40948 8.64968 7.27739 9.51759C8.1453 10.3855 9.32244 10.8731 10.5498 10.8731H27.0782V10.212C27.0782 9.15989 26.6603 8.15091 25.9164 7.40699C25.1725 6.66307 24.1635 6.24514 23.1114 6.24514ZM5.26076 32.0294H27.7394C27.7394 26.7403 28.9744 21.7289 31.3386 17.1975L31.7062 16.4927V16.1622H1.29395V16.4927L1.66154 17.1975C4.02576 21.7289 5.26076 26.7403 5.26076 32.0294Z" stroke="black" stroke-width="1.8134"/>
</svg>
