<svg  width="41" height="26" viewBox="0 0 41 26" fill="none" xmlns="http://www.w3.org/2000/svg">
    <path d="M20.3541 25.1082C16.8062 25.1082 13.684 23.7955 11.4134 21.5248C9.14268 23.4052 6.09145 24.7889 4.31749 24.7889C2.72092 24.7889 1.62106 24.0793 1.01791 22.6602C-0.968935 17.7285 5.8431 5.16886 9.1072 2.04667C11.6617 -0.507838 15.1742 -0.188523 17.161 2.15311C18.4383 3.7142 19.5381 5.16886 20.4961 6.48159C21.6314 4.81406 22.8377 3.28845 23.7956 2.15311C25.7825 -0.188523 29.2949 -0.507838 31.8495 2.04667C35.1136 5.16886 41.9256 17.7285 39.9387 22.6602C39.4066 23.9729 38.2712 24.7889 36.6037 24.7889C34.8652 24.7889 31.6011 23.5117 29.3659 21.5603C26.9533 23.8665 23.7956 25.1082 20.3541 25.1082ZM13.1873 19.7154L13.1164 19.7863C14.9258 21.5958 17.5158 22.6602 20.3541 22.6602C23.1925 22.6602 25.676 21.6313 27.6629 19.7863C26.563 18.3317 25.747 16.6642 25.747 14.8547C25.747 10.2779 32.63 10.4553 32.63 14.8547C32.63 16.6642 32.0623 18.1898 30.9625 19.7154C32.9493 21.4184 35.6812 22.3409 36.6037 22.3409C37.2778 22.3409 37.5261 22.128 37.6681 21.7377C38.2712 20.2831 37.4907 16.9125 35.6457 12.7614C34.0137 9.0361 31.7785 5.41721 30.1464 3.78516C28.6208 2.33051 26.7759 2.43695 25.676 3.7142C24.6471 4.99146 23.1925 6.80091 21.9507 8.68131C23.4054 11.0584 24.115 12.9034 24.115 14.2516C24.115 19.3251 16.8417 19.2187 16.8417 14.2516C16.8417 12.9034 17.5868 11.0584 19.0414 8.68131C18.0125 7.1557 16.8062 5.52365 15.2806 3.7142C14.1807 2.43695 12.3358 2.33051 10.8102 3.78516C9.17816 5.41721 6.94296 9.0361 5.31091 12.7614C3.46598 16.9125 2.72092 20.2831 3.28859 21.7377C3.4305 22.128 3.67886 22.3409 4.35297 22.3409C5.38187 22.3409 7.97186 21.2765 9.92322 19.6089C9.56843 19.0768 8.36213 17.3028 8.36213 14.8547C8.36213 12.5131 10.0297 11.2713 11.6262 11.2713C13.3292 11.2713 15.1032 12.6195 15.1032 14.8547C15.1032 17.019 14.0033 18.6865 13.1873 19.7154ZM29.153 13.9323C28.7627 13.9323 28.1951 14.0387 28.1951 14.8547C28.1951 15.7417 28.5499 16.7351 29.2595 17.835C29.8626 16.877 30.1819 15.8836 30.1819 14.8547C30.1819 13.9677 29.2595 13.9323 29.153 13.9323ZM11.6262 13.7194C10.9521 13.7194 10.8102 14.3225 10.8102 14.8547C10.8102 16.0965 11.236 17.0544 11.6262 17.7285C12.1584 16.9125 12.6551 15.9901 12.6551 14.8547C12.6551 13.9677 12.0165 13.7194 11.6262 13.7194ZM20.4961 11.0229C19.4672 12.8679 19.2898 13.8258 19.2898 14.2516C19.2898 15.6353 20.7089 15.8836 21.3121 15.2805C21.5604 15.0321 21.6669 14.7128 21.6669 14.2516C21.6669 13.7903 21.4895 12.8679 20.4961 11.0229Z" fill="#283891"/>
</svg>