<svg width="43" height="43" viewBox="0 0 43 43" fill="none" xmlns="http://www.w3.org/2000/svg">
<path d="M19.6233 21.1401C19.6233 21.7333 19.859 22.3023 20.2785 22.7218C20.698 23.1413 21.2669 23.3769 21.8602 23.3769C22.4534 23.3769 23.0224 23.1413 23.4419 22.7218C23.8614 22.3023 24.0971 21.7333 24.0971 21.1401C24.0971 20.5468 23.8614 19.9779 23.4419 19.5584C23.0224 19.1389 22.4534 18.9032 21.8602 18.9032C21.2669 18.9032 20.698 19.1389 20.2785 19.5584C19.859 19.9779 19.6233 20.5468 19.6233 21.1401ZM28.9436 21.1401C28.9436 21.7333 29.1793 22.3023 29.5988 22.7218C30.0183 23.1413 30.5872 23.3769 31.1805 23.3769C31.7738 23.3769 32.3427 23.1413 32.7622 22.7218C33.1817 22.3023 33.4174 21.7333 33.4174 21.1401C33.4174 20.5468 33.1817 19.9779 32.7622 19.5584C32.3427 19.1389 31.7738 18.9032 31.1805 18.9032C30.5872 18.9032 30.0183 19.1389 29.5988 19.5584C29.1793 19.9779 28.9436 20.5468 28.9436 21.1401ZM10.303 21.1401C10.303 21.7333 10.5387 22.3023 10.9582 22.7218C11.3777 23.1413 11.9466 23.3769 12.5399 23.3769C13.1331 23.3769 13.7021 23.1413 14.1216 22.7218C14.5411 22.3023 14.7767 21.7333 14.7767 21.1401C14.7767 20.5468 14.5411 19.9779 14.1216 19.5584C13.7021 19.1389 13.1331 18.9032 12.5399 18.9032C11.9466 18.9032 11.3777 19.1389 10.9582 19.5584C10.5387 19.9779 10.303 20.5468 10.303 21.1401ZM41.116 13.05C40.0628 10.5475 38.5529 8.30134 36.6282 6.37204C34.717 4.45395 32.4482 2.92927 29.9502 1.88431C27.3871 0.807812 24.6656 0.262573 21.8602 0.262573H21.767C18.9429 0.276554 16.2074 0.835773 13.635 1.93557C11.1584 2.99125 8.91088 4.51863 7.01759 6.43262C5.11158 8.35726 3.61567 10.5941 2.58112 13.0873C1.50928 15.6691 0.968706 18.4139 0.982686 21.2379C0.998499 24.4743 1.76416 27.6629 3.21956 30.5536V37.637C3.21956 38.2056 3.44541 38.7508 3.84743 39.1528C4.24944 39.5548 4.7947 39.7807 5.36323 39.7807H12.4513C15.342 41.2361 18.5306 42.0018 21.767 42.0176H21.8648C24.6563 42.0176 27.3638 41.477 29.9129 40.4191C32.3983 39.3867 34.6587 37.8798 36.5676 35.9827C38.4923 34.0767 40.0068 31.8491 41.0647 29.3652C42.1645 26.7928 42.7237 24.0573 42.7377 21.2333C42.7517 18.3952 42.2018 15.6411 41.116 13.05ZM34.0745 33.4615C30.8077 36.6957 26.4737 38.4759 21.8602 38.4759H21.781C18.9709 38.4619 16.1795 37.7629 13.7142 36.4487L13.3228 36.239H6.76128V29.6775L6.55157 29.286C5.23741 26.8208 4.53839 24.0294 4.52441 21.2193C4.50576 16.5731 6.28128 12.2112 9.53873 8.9258C12.7915 5.64039 17.1394 3.82293 21.7856 3.80429H21.8648C24.1949 3.80429 26.4551 4.25633 28.5848 5.15108C30.6632 6.02253 32.5273 7.27611 34.1304 8.8792C35.7288 10.4776 36.9871 12.3464 37.8585 14.4248C38.7626 16.5778 39.2146 18.8613 39.2053 21.2193C39.1773 25.8608 37.3552 30.2087 34.0745 33.4615Z" fill="black"/>
</svg>
