<svg width="28" height="24" viewBox="0 0 28 24" fill="none" xmlns="http://www.w3.org/2000/svg">
<path fill-rule="evenodd" clip-rule="evenodd" d="M19.311 0.0160968C21.7659 -0.184138 23.6627 1.51309 24.925 3.47095C26.1968 5.44628 27.0727 8.0255 27.5543 10.5618C28.0332 13.0981 28.162 15.8235 27.7636 18.1469C27.3813 20.3781 26.3604 22.9303 24.0517 23.7487C21.8786 24.5179 19.9737 23.3991 18.6161 22.0451C17.2532 20.6864 16.0995 18.7826 15.1927 16.9979C14.7685 16.1594 14.3703 15.3028 13.9988 14.4298C13.6277 15.3022 13.2299 16.1583 12.8062 16.9963C11.8994 18.7826 10.7457 20.6864 9.38282 22.0451C8.02391 23.3991 6.12037 24.5179 3.9472 23.7487C1.63853 22.9303 0.617677 20.3797 0.235359 18.1469C-0.161715 15.8235 -0.0329343 13.0981 0.445969 10.5618C0.926214 8.0255 1.80219 5.44469 3.07524 3.47095C4.33622 1.51309 6.23305 -0.184138 8.68794 0.0160968C10.9899 0.206797 12.6627 2.055 13.705 3.62192L14.0001 4.08119L14.2939 3.62033C15.3362 2.055 17.0091 0.205208 19.311 0.0160968ZM8.40891 4.77247C7.8455 4.72639 7.10769 5.06806 6.2733 6.36482C5.44964 7.6441 4.76549 9.53203 4.37244 11.6059C3.98073 13.6798 3.92305 15.7044 4.17927 17.1998C4.40061 18.487 4.7561 18.9494 4.97342 19.1115L5.06464 19.1656L5.10086 19.1815C5.41208 19.2927 5.92452 19.2609 6.7911 18.3964C7.65635 17.5351 8.53903 16.1509 9.35867 14.5395C9.72355 13.8196 10.0629 13.0822 10.3675 12.3735L10.7162 11.5391L11.0288 10.7493L11.3051 10.0215L11.5399 9.3747L11.7317 8.82485C11.4722 8.20725 11.1749 7.61291 10.8423 7.04657C9.97843 5.59089 9.11184 4.83127 8.40891 4.77406V4.77247ZM19.59 4.77247C18.8871 4.83127 18.0205 5.59089 17.1566 7.04657C16.824 7.6129 16.5268 8.20723 16.2672 8.82485L16.5717 9.68777L16.8266 10.3775L16.9701 10.7493L17.2841 11.5391L17.6328 12.3735C17.9373 13.0822 18.2754 13.8196 18.6403 14.5395C19.4599 16.1509 20.3439 17.5351 21.2065 18.3964C22.0127 19.2005 22.5117 19.2832 22.8297 19.2021L22.8994 19.1815C23.0738 19.1179 23.5474 18.7857 23.8197 17.1982C24.0746 15.7044 24.0196 13.6798 23.6265 11.6043C23.2348 9.53203 22.5506 7.6441 21.7256 6.36482C20.8899 5.06806 20.1534 4.72798 19.59 4.77247Z" fill="white"/>
</svg>
