<svg width="24" height="24" viewBox="0 0 24 24" fill="none" xmlns="http://www.w3.org/2000/svg">
<path d="M21.3426 14.688L19.397 12.7424V10.1649C19.3947 8.38374 18.7321 6.66665 17.5373 5.34569C16.3425 4.02472 14.7002 3.19371 12.9282 3.01335V1.53992H11.4907V3.01335C9.7187 3.19371 8.07649 4.02472 6.88164 5.34569C5.6868 6.66665 5.0242 8.38374 5.02197 10.1649V12.7424L3.07632 14.688C2.94152 14.8228 2.86576 15.0056 2.86572 15.1962V17.3524C2.86572 17.543 2.94145 17.7259 3.07624 17.8607C3.21103 17.9954 3.39385 18.0712 3.58447 18.0712H8.61572V18.7899C8.61572 19.743 8.99435 20.6571 9.66831 21.3311C10.3423 22.005 11.2564 22.3837 12.2095 22.3837C13.1626 22.3837 14.0767 22.005 14.7506 21.3311C15.4246 20.6571 15.8032 19.743 15.8032 18.7899V18.0712H20.8345C21.0251 18.0712 21.2079 17.9954 21.3427 17.8607C21.4775 17.7259 21.5532 17.543 21.5532 17.3524V15.1962C21.5532 15.0056 21.4774 14.8228 21.3426 14.688ZM14.3657 18.7899C14.3657 19.3618 14.1385 19.9102 13.7342 20.3146C13.3298 20.719 12.7813 20.9462 12.2095 20.9462C11.6376 20.9462 11.0891 20.719 10.6848 20.3146C10.2804 19.9102 10.0532 19.3618 10.0532 18.7899V18.0712H14.3657V18.7899Z" fill="white"/>
</svg>
