<svg width="32" height="32" viewBox="0 0 32 32" fill="none" xmlns="http://www.w3.org/2000/svg">
<path fill-rule="evenodd" clip-rule="evenodd" d="M5.93546 2.05066H25.8178C26.8724 2.05066 27.8839 2.46961 28.6296 3.21534C29.3753 3.96107 29.7943 4.9725 29.7943 6.02713V25.9095C29.7943 26.9641 29.3753 27.9755 28.6296 28.7213C27.8839 29.467 26.8724 29.886 25.8178 29.886H5.93546C4.88083 29.886 3.8694 29.467 3.12367 28.7213C2.37793 27.9755 1.95898 26.9641 1.95898 25.9095V6.02713C1.95898 4.9725 2.37793 3.96107 3.12367 3.21534C3.8694 2.46961 4.88083 2.05066 5.93546 2.05066Z" stroke="black" stroke-width="2.98235" stroke-linecap="round" stroke-linejoin="round"/>
<path d="M29.7943 21.933L23.8296 15.9683L17.8649 21.9032M25.8178 29.8859L7.92369 11.9918L1.95898 17.9565" stroke="black" stroke-width="2.98235" stroke-linecap="round" stroke-linejoin="round"/>
<path d="M22.8359 10.9977C23.934 10.9977 24.8241 10.1075 24.8241 9.00948C24.8241 7.9114 23.934 7.02124 22.8359 7.02124C21.7378 7.02124 20.8477 7.9114 20.8477 9.00948C20.8477 10.1075 21.7378 10.9977 22.8359 10.9977Z" fill="black"/>
</svg>
