<svg width="30" height="24" viewBox="0 0 30 24" fill="none" xmlns="http://www.w3.org/2000/svg">
<path d="M2.66334 21.0274C0.930403 19.1868 0 17.1224 0 13.776C0 7.88739 4.13381 2.6095 10.1453 0L11.6477 2.31843C6.03668 5.3536 4.93971 9.29224 4.50227 11.7756C5.40575 11.3078 6.58853 11.1446 7.74774 11.2523C10.7829 11.5333 13.1754 14.025 13.1754 17.1224C13.1754 18.6842 12.555 20.182 11.4506 21.2863C10.3463 22.3906 8.84851 23.011 7.28675 23.011C6.42307 23.0035 5.56952 22.8242 4.77578 22.4837C3.98203 22.1431 3.26396 21.6481 2.66334 21.0274ZM19.488 21.0274C17.755 19.1868 16.8246 17.1224 16.8246 13.776C16.8246 7.88739 20.9584 2.6095 26.9699 0L28.4723 2.31843C22.8613 5.3536 21.7643 9.29224 21.3269 11.7756C22.2304 11.3078 23.4132 11.1446 24.5724 11.2523C27.6075 11.5333 30 14.025 30 17.1224C30 18.6842 29.3796 20.182 28.2753 21.2863C27.1709 22.3906 25.6731 23.011 24.1114 23.011C23.2477 23.0035 22.3941 22.8242 21.6004 22.4837C20.8067 22.1431 20.0886 21.6481 19.488 21.0274Z" fill="black"/>
</svg>
