<svg width="48" height="49" viewBox="0 0 48 49" fill="none" xmlns="http://www.w3.org/2000/svg">
<path d="M23.8592 11.4918L26.7103 17.0136L32.8062 17.8994L28.3327 21.9301L29.8239 27.8948L23.8592 24.5396L17.8945 27.8948L19.3856 21.9301L14.9121 17.8994L21.1751 17.0136L23.8592 11.4918Z" fill="black"/>
<path d="M26.4476 44.2977L23.8589 42.8065L29.8236 32.3683H38.7707C39.1625 32.3689 39.5506 32.2921 39.9127 32.1425C40.2748 31.9928 40.6038 31.7731 40.8808 31.4961C41.1579 31.219 41.3775 30.89 41.5272 30.5279C41.6769 30.1658 41.7536 29.7777 41.753 29.3859V11.4918C41.7536 11.1 41.6769 10.7119 41.5272 10.3498C41.3775 9.98771 41.1579 9.6587 40.8808 9.38165C40.6038 9.1046 40.2748 8.88494 39.9127 8.73527C39.5506 8.5856 39.1625 8.50886 38.7707 8.50945H8.94713C8.55531 8.50886 8.16724 8.5856 7.80513 8.73527C7.44303 8.88494 7.11403 9.1046 6.83697 9.38165C6.55992 9.6587 6.34026 9.98771 6.19059 10.3498C6.04092 10.7119 5.96419 11.1 5.96477 11.4918V29.3859C5.96419 29.7777 6.04092 30.1658 6.19059 30.5279C6.34026 30.89 6.55992 31.219 6.83697 31.4961C7.11403 31.7731 7.44303 31.9928 7.80513 32.1425C8.16724 32.2921 8.55531 32.3689 8.94713 32.3683H22.3677V35.3506H8.94713C7.36519 35.3506 5.84804 34.7222 4.72944 33.6036C3.61084 32.485 2.98242 30.9679 2.98242 29.3859V11.4918C2.98242 9.90987 3.61084 8.39272 4.72944 7.27412C5.84804 6.15552 7.36519 5.5271 8.94713 5.5271H38.7707C40.3526 5.5271 41.8697 6.15552 42.9883 7.27412C44.1069 8.39272 44.7354 9.90987 44.7354 11.4918V29.3859C44.7354 30.9679 44.1069 32.485 42.9883 33.6036C41.8697 34.7222 40.3526 35.3506 38.7707 35.3506H31.5608L26.4476 44.2977Z" fill="black"/>
</svg>
