<svg width="141" height="140" viewBox="0 0 141 140" fill="none" xmlns="http://www.w3.org/2000/svg">
<path d="M70.5 84C71.8845 84 73.2378 83.5895 74.389 82.8203C75.5401 82.0511 76.4373 80.9579 76.9672 79.6788C77.497 78.3997 77.6356 76.9922 77.3655 75.6344C77.0954 74.2765 76.4287 73.0292 75.4497 72.0503C74.4708 71.0713 73.2235 70.4046 71.8656 70.1345C70.5078 69.8644 69.1003 70.003 67.8212 70.5328C66.5421 71.0627 65.4489 71.9599 64.6797 73.111C63.9105 74.2622 63.5 75.6155 63.5 77C63.5 78.8565 64.2375 80.637 65.5503 81.9497C66.863 83.2625 68.6435 84 70.5 84ZM105.5 84C106.884 84 108.238 83.5895 109.389 82.8203C110.54 82.0511 111.437 80.9579 111.967 79.6788C112.497 78.3997 112.636 76.9922 112.365 75.6344C112.095 74.2765 111.429 73.0292 110.45 72.0503C109.471 71.0713 108.224 70.4046 106.866 70.1345C105.508 69.8644 104.1 70.003 102.821 70.5328C101.542 71.0627 100.449 71.9599 99.6797 73.111C98.9105 74.2622 98.5 75.6155 98.5 77C98.5 78.8565 99.2375 80.637 100.55 81.9497C101.863 83.2625 103.643 84 105.5 84ZM70.5 112C71.8845 112 73.2378 111.589 74.389 110.82C75.5401 110.051 76.4373 108.958 76.9672 107.679C77.497 106.4 77.6356 104.992 77.3655 103.634C77.0954 102.276 76.4287 101.029 75.4497 100.05C74.4708 99.0713 73.2235 98.4046 71.8656 98.1345C70.5078 97.8644 69.1003 98.003 67.8212 98.5328C66.5421 99.0627 65.4489 99.9599 64.6797 101.111C63.9105 102.262 63.5 103.616 63.5 105C63.5 106.857 64.2375 108.637 65.5503 109.95C66.863 111.263 68.6435 112 70.5 112ZM105.5 112C106.884 112 108.238 111.589 109.389 110.82C110.54 110.051 111.437 108.958 111.967 107.679C112.497 106.4 112.636 104.992 112.365 103.634C112.095 102.276 111.429 101.029 110.45 100.05C109.471 99.0713 108.224 98.4046 106.866 98.1345C105.508 97.8644 104.1 98.003 102.821 98.5328C101.542 99.0627 100.449 99.9599 99.6797 101.111C98.9105 102.262 98.5 103.616 98.5 105C98.5 106.857 99.2375 108.637 100.55 109.95C101.863 111.263 103.643 112 105.5 112ZM35.5 84C36.8845 84 38.2378 83.5895 39.389 82.8203C40.5401 82.0511 41.4373 80.9579 41.9672 79.6788C42.497 78.3997 42.6356 76.9922 42.3655 75.6344C42.0954 74.2765 41.4287 73.0292 40.4497 72.0503C39.4708 71.0713 38.2235 70.4046 36.8656 70.1345C35.5078 69.8644 34.1003 70.003 32.8212 70.5328C31.5421 71.0627 30.4489 71.9599 29.6797 73.111C28.9105 74.2622 28.5 75.6155 28.5 77C28.5 78.8565 29.2375 80.637 30.5503 81.9497C31.863 83.2625 33.6435 84 35.5 84ZM119.5 14H112.5V7C112.5 5.14348 111.763 3.36301 110.45 2.05025C109.137 0.737498 107.357 0 105.5 0C103.643 0 101.863 0.737498 100.55 2.05025C99.2375 3.36301 98.5 5.14348 98.5 7V14H42.5V7C42.5 5.14348 41.7625 3.36301 40.4497 2.05025C39.137 0.737498 37.3565 0 35.5 0C33.6435 0 31.863 0.737498 30.5503 2.05025C29.2375 3.36301 28.5 5.14348 28.5 7V14H21.5C15.9305 14 10.589 16.2125 6.65076 20.1508C2.71249 24.089 0.5 29.4305 0.5 35V119C0.5 124.57 2.71249 129.911 6.65076 133.849C10.589 137.788 15.9305 140 21.5 140H119.5C125.07 140 130.411 137.788 134.349 133.849C138.288 129.911 140.5 124.57 140.5 119V35C140.5 29.4305 138.288 24.089 134.349 20.1508C130.411 16.2125 125.07 14 119.5 14ZM126.5 119C126.5 120.857 125.763 122.637 124.45 123.95C123.137 125.263 121.357 126 119.5 126H21.5C19.6435 126 17.863 125.263 16.5503 123.95C15.2375 122.637 14.5 120.857 14.5 119V56H126.5V119ZM126.5 42H14.5V35C14.5 33.1435 15.2375 31.363 16.5503 30.0503C17.863 28.7375 19.6435 28 21.5 28H119.5C121.357 28 123.137 28.7375 124.45 30.0503C125.763 31.363 126.5 33.1435 126.5 35V42ZM35.5 112C36.8845 112 38.2378 111.589 39.389 110.82C40.5401 110.051 41.4373 108.958 41.9672 107.679C42.497 106.4 42.6356 104.992 42.3655 103.634C42.0954 102.276 41.4287 101.029 40.4497 100.05C39.4708 99.0713 38.2235 98.4046 36.8656 98.1345C35.5078 97.8644 34.1003 98.003 32.8212 98.5328C31.5421 99.0627 30.4489 99.9599 29.6797 101.111C28.9105 102.262 28.5 103.616 28.5 105C28.5 106.857 29.2375 108.637 30.5503 109.95C31.863 111.263 33.6435 112 35.5 112Z" fill="#52B46B"/>
</svg>
