<svg width="25" height="24" viewBox="0 0 25 24" fill="none" xmlns="http://www.w3.org/2000/svg">
<path d="M22.6333 24L14.2333 15.6C13.5667 16.1333 12.8 16.5556 11.9333 16.8667C11.0667 17.1778 10.1444 17.3333 9.16667 17.3333C6.74445 17.3333 4.69467 16.4942 3.01733 14.816C1.34 13.1378 0.50089 11.088 0.500001 8.66667C0.499112 6.24533 1.33822 4.19556 3.01733 2.51733C4.69645 0.839111 6.74622 0 9.16667 0C11.5871 0 13.6373 0.839111 15.3173 2.51733C16.9973 4.19556 17.836 6.24533 17.8333 8.66667C17.8333 9.64444 17.6778 10.5667 17.3667 11.4333C17.0556 12.3 16.6333 13.0667 16.1 13.7333L24.5 22.1333L22.6333 24ZM9.16667 14.6667C10.8333 14.6667 12.2502 14.0836 13.4173 12.9173C14.5844 11.7511 15.1676 10.3342 15.1667 8.66667C15.1658 6.99911 14.5827 5.58267 13.4173 4.41733C12.252 3.252 10.8351 2.66844 9.16667 2.66667C7.49822 2.66489 6.08178 3.24844 4.91733 4.41733C3.75289 5.58622 3.16933 7.00267 3.16667 8.66667C3.164 10.3307 3.74756 11.7476 4.91733 12.9173C6.08711 14.0871 7.50356 14.6702 9.16667 14.6667Z" fill="white"/>
</svg>
