<svg width="25" height="32" viewBox="0 0 25 32" fill="none" xmlns="http://www.w3.org/2000/svg">
<path d="M18.25 11.3846H21.125C21.8875 11.3846 22.6188 11.6885 23.1579 12.2295C23.6971 12.7705 24 13.5042 24 14.2692V28.1154C24 28.8804 23.6971 29.6141 23.1579 30.1551C22.6188 30.6961 21.8875 31 21.125 31H3.875C3.1125 31 2.38124 30.6961 1.84207 30.1551C1.3029 29.6141 1 28.8804 1 28.1154V14.2692C1 13.5042 1.3029 12.7705 1.84207 12.2295C2.38124 11.6885 3.1125 11.3846 3.875 11.3846H6.75M18.25 6.76923L12.5 1M12.5 1L6.75 6.76923M12.5 1V20.6875" stroke="black" stroke-width="2" stroke-linecap="round" stroke-linejoin="round"/>
</svg>
