<svg width="143" height="19" viewBox="0 0 143 19" fill="none" xmlns="http://www.w3.org/2000/svg">
<path fill-rule="evenodd" clip-rule="evenodd" d="M9.41715 15.8437L13.9843 18.6061C14.8207 19.1123 15.8442 18.3639 15.6241 17.4175L14.4135 12.223L18.4525 8.72334C19.1898 8.08503 18.7936 6.87446 17.8252 6.79742L12.5096 6.3462L10.4296 1.43786C10.0555 0.546431 8.77885 0.546431 8.40467 1.43786L6.32468 6.3352L1.00914 6.78641C0.0406727 6.86345 -0.355517 8.07403 0.381836 8.71233L4.42077 12.212L3.21019 17.4065C2.99008 18.3529 4.01357 19.1013 4.84997 18.5951L9.41715 15.8437ZM40.2319 15.8437L44.7991 18.6061C45.6355 19.1123 46.659 18.3639 46.4389 17.4175L45.2283 12.223L49.2672 8.72334C50.0046 8.08503 49.6084 6.87446 48.6399 6.79742L43.3244 6.3462L41.2444 1.43786C40.8702 0.546431 39.5936 0.546431 39.2194 1.43786L37.1394 6.3352L31.8239 6.78641C30.8554 6.86345 30.4592 8.07403 31.1966 8.71233L35.2355 12.212L34.0249 17.4065C33.8048 18.3529 34.8283 19.1013 35.6647 18.5951L40.2319 15.8437ZM75.6138 18.6061L71.0466 15.8437L66.4794 18.5951C65.643 19.1013 64.6195 18.3529 64.8396 17.4065L66.0502 12.212L62.0113 8.71233C61.2739 8.07403 61.6701 6.86345 62.6386 6.78641L67.9541 6.3352L70.0341 1.43786C70.4083 0.546431 71.6849 0.546431 72.0591 1.43786L74.1391 6.3462L79.4546 6.79742C80.4231 6.87446 80.8193 8.08503 80.0819 8.72334L76.043 12.223L77.2536 17.4175C77.4737 18.3639 76.4502 19.1123 75.6138 18.6061ZM101.861 15.8437L106.429 18.6061C107.265 19.1123 108.288 18.3639 108.068 17.4175L106.858 12.223L110.897 8.72334C111.634 8.08503 111.238 6.87446 110.269 6.79742L104.954 6.3462L102.874 1.43786C102.5 0.546431 101.223 0.546431 100.849 1.43786L98.7689 6.3352L93.4533 6.78641C92.4849 6.86345 92.0887 8.07403 92.826 8.71233L96.865 12.212L95.6544 17.4065C95.4343 18.3529 96.4578 19.1013 97.2942 18.5951L101.861 15.8437ZM137.243 18.6061L132.676 15.8437L128.109 18.5951C127.272 19.1013 126.249 18.3529 126.469 17.4065L127.68 12.212L123.641 8.71233C122.903 8.07403 123.3 6.86345 124.268 6.78641L129.584 6.3352L131.664 1.43786C132.038 0.546431 133.314 0.546431 133.689 1.43786L135.769 6.3462L141.084 6.79742C142.053 6.87446 142.449 8.08503 141.711 8.72334L137.672 12.223L138.883 17.4175C139.103 18.3639 138.08 19.1123 137.243 18.6061Z" fill="#F1C644"/>
</svg>
