<svg width="33" height="33" viewBox="0 0 33 33" fill="none" xmlns="http://www.w3.org/2000/svg">
<path d="M8.44211 5.73789C7.07754 6.61719 4.5983 5.685 3.58678 7.16196C3.27869 7.61153 3.43075 8.20655 3.73487 9.39658L6.36617 22.319C6.96118 24.6436 7.25737 25.8058 8.18163 26.4842C8.55847 26.7618 8.94854 26.8914 9.3677 26.9483M8.44211 5.73789C10.2721 4.55711 8.69334 3.14758 11.3511 3.14758L14.2006 5.38617C15.3364 6.27737 15.9036 6.7243 15.9459 7.35369C15.9883 7.98441 15.4871 8.51067 14.4835 9.56187L13.751 10.3288C13.2499 10.8537 12.9986 11.1168 12.6985 11.0944C12.3983 11.0719 12.1841 10.7744 11.7597 10.1807L8.44211 5.73789ZM24.8381 5.73789C26.2027 6.61719 28.6819 5.685 29.6935 7.16196C30.0016 7.61153 29.8495 8.20655 29.5454 9.39658L26.9141 22.319C26.3191 24.6436 26.0229 25.8058 25.0999 26.4842C24.7218 26.7618 24.3304 26.8914 23.9126 26.9483M24.8381 5.73789C23.0081 4.55711 24.5869 3.14758 21.9292 3.14758L19.0797 5.38617C17.9439 6.27737 17.3766 6.7243 17.3343 7.35369C17.292 7.98441 17.7931 8.51067 18.7967 9.56187L19.5293 10.3288C20.0304 10.8537 20.2816 11.1168 20.5818 11.0944C20.8819 11.0719 21.0961 10.7744 21.5206 10.1807L24.8381 5.73789ZM14.3751 9.75888L15.5255 11.6788C15.7965 12.1284 15.9314 12.3558 15.9724 12.6084C16.0121 12.8622 15.9526 13.1187 15.8349 13.6305L13.4006 24.2257C13.074 26.0584 14.0419 26.9496 14.982 28.1264C15.7635 29.1049 16.1549 29.5928 16.6415 29.5928C17.128 29.5928 17.5194 29.1035 18.3009 28.1251C19.2397 26.9509 20.2089 26.0584 19.8823 24.2257L17.4467 13.6305C17.329 13.1187 17.2708 12.8622 17.3105 12.6084C17.3502 12.3558 17.4864 12.1297 17.7561 11.6788L18.9065 9.75888" stroke="black" stroke-width="1.28546" stroke-linecap="round" stroke-linejoin="round"/>
</svg>
