<svg width="33" height="23" viewBox="0 0 33 23" fill="none" xmlns="http://www.w3.org/2000/svg">
<path d="M11.4591 22.4772C8.35867 22.4772 5.73211 21.402 3.57945 19.2514C1.42785 17.0998 0.352051 14.4743 0.352051 11.3749C0.352051 8.2755 1.42785 5.64894 3.57945 3.49522C5.73105 1.34151 8.35761 0.264119 11.4591 0.263062H20.9795C24.08 0.263062 26.7065 1.33886 28.8592 3.49046C31.0108 5.641 32.0866 8.26598 32.0866 11.3654C32.0866 14.4648 31.0108 17.0919 28.8592 19.2467C26.7076 21.4014 24.081 22.4783 20.9795 22.4772H11.4591ZM11.4591 20.8905H20.9795C23.624 20.8905 25.8719 19.9649 27.7231 18.1137C29.5743 16.2625 30.4998 14.0147 30.4998 11.3701C30.4998 8.7256 29.5743 6.47774 27.7231 4.62656C25.8719 2.77538 23.624 1.84979 20.9795 1.84979H11.4591C8.81459 1.84979 6.56673 2.77538 4.71555 4.62656C2.86437 6.47774 1.93878 8.7256 1.93878 11.3701C1.93878 14.0147 2.86437 16.2625 4.71555 18.1137C6.56673 19.9649 8.81459 20.8905 11.4591 20.8905ZM16.2193 13.7502C16.8889 13.7502 17.4527 13.5207 17.9108 13.0616C18.3699 12.6036 18.5994 12.0397 18.5994 11.3701C18.5994 10.7005 18.3699 10.1367 17.9108 9.67869C17.4517 9.22066 16.8879 8.99111 16.2193 8.99005C15.5508 8.989 14.987 9.21854 14.5279 9.67869C14.0688 10.1367 13.8392 10.7005 13.8392 11.3701C13.8392 12.0397 14.0688 12.6036 14.5279 13.0616C14.987 13.5196 15.5508 13.7492 16.2193 13.7502ZM13.8392 5.8166H18.5994V4.22988H13.8392V5.8166ZM13.8392 18.5104H18.5994V16.9237H13.8392V18.5104ZM21.7729 13.7502H23.3596V8.99005H21.7729V13.7502ZM9.07904 13.7502H10.6658V8.99005H9.07904V13.7502Z" fill="black"/>
</svg>
