<svg width="41" height="35" viewBox="0 0 41 35" fill="none" xmlns="http://www.w3.org/2000/svg">
<path d="M10.9177 6.77415V4.78592C10.9177 3.69239 11.3074 2.75659 12.0868 1.97853C12.8662 1.20047 13.802 0.810774 14.8942 0.809448H26.8236C27.9172 0.809448 28.8536 1.19914 29.633 1.97853C30.4124 2.75792 30.8014 3.69371 30.8001 4.78592V6.77415H32.1919C32.9872 6.77415 33.7082 6.99816 34.3551 7.44618C35.0019 7.89419 35.4738 8.46548 35.7707 9.16004L40.443 19.8965C40.5424 20.1616 40.6173 20.4267 40.6677 20.6918C40.7181 20.9569 40.7426 21.222 40.7413 21.4871V30.633C40.7413 31.7265 40.3522 32.663 39.5742 33.4424C38.7961 34.2217 37.8597 34.6108 36.7648 34.6094H4.95303C3.8595 34.6094 2.92371 34.2204 2.14565 33.4424C1.36758 32.6643 0.977888 31.7278 0.976562 30.633V21.4871C0.976562 21.222 1.00175 20.9569 1.05212 20.6918C1.10248 20.4267 1.17671 20.1616 1.2748 19.8965L5.94715 9.16004C6.24539 8.46415 6.71792 7.8922 7.36476 7.44419C8.0116 6.99617 8.73201 6.77283 9.52598 6.77415H10.9177ZM14.8942 6.77415H26.8236V4.78592H14.8942V6.77415ZM10.9177 18.7036V16.7153H14.8942V18.7036H26.8236V16.7153H30.8001V18.7036H35.5719L32.1919 10.7506H9.52598L6.14597 18.7036H10.9177ZM10.9177 22.68H4.95303V30.633H36.7648V22.68H30.8001V24.6683H26.8236V22.68H14.8942V24.6683H10.9177V22.68Z" fill="black"/>
</svg>
