<svg width="34" height="33" viewBox="0 0 34 33" fill="none" xmlns="http://www.w3.org/2000/svg">
<path d="M17.1403 5.6449H7.57124C6.48358 5.6449 5.44047 6.07697 4.67138 6.84606C3.90229 7.61515 3.47021 8.65827 3.47021 9.74593V20.682C3.47021 21.7697 3.90229 22.8128 4.67138 23.5819C5.44047 24.351 6.48358 24.783 7.57124 24.783L6.20423 26.15V27.5171H7.57124L10.3053 24.742L13.0393 24.783V17.948H6.20423V8.37892H18.5073V11.1129H21.2413V9.74593C21.2413 8.65827 20.8093 7.61515 20.0402 6.84606C19.2711 6.07697 18.228 5.6449 17.1403 5.6449ZM7.57124 19.315C7.9338 19.315 8.2815 19.459 8.53787 19.7154C8.79423 19.9717 8.93825 20.3195 8.93825 20.682C8.93825 21.0446 8.79423 21.3923 8.53787 21.6486C8.2815 21.905 7.9338 22.049 7.57124 22.049C7.20869 22.049 6.86099 21.905 6.60462 21.6486C6.34826 21.3923 6.20423 21.0446 6.20423 20.682C6.20423 20.3195 6.34826 19.9717 6.60462 19.7154C6.86099 19.459 7.20869 19.315 7.57124 19.315ZM28.8556 13.3822C28.6642 12.8354 28.1447 12.4799 27.5296 12.4799H17.7008C17.072 12.4799 16.5662 12.8354 16.3611 13.3822L14.4063 19.0006V26.5328C14.4063 27.0523 14.8437 27.5171 15.3632 27.5171H16.2107C16.7302 27.5171 17.1403 26.9976 17.1403 26.4781V24.783H28.0764V26.4781C28.0764 26.9976 28.5002 27.5171 29.0196 27.5171H29.8535C30.373 27.5171 30.8104 27.0523 30.8104 26.5328V19.0006L28.8556 13.3822ZM17.7008 13.847H27.5296L28.9376 17.948H16.2928L17.7008 13.847ZM17.1403 22.049C16.7778 22.049 16.4301 21.905 16.1737 21.6486C15.9173 21.3923 15.7733 21.0446 15.7733 20.682C15.7733 20.3195 15.9173 19.9717 16.1737 19.7154C16.4301 19.459 16.7778 19.315 17.1403 19.315C17.5029 19.315 17.8506 19.459 18.1069 19.7154C18.3633 19.9717 18.5073 20.3195 18.5073 20.682C18.5073 21.0446 18.3633 21.3923 18.1069 21.6486C17.8506 21.905 17.5029 22.049 17.1403 22.049ZM28.0764 22.049C27.7138 22.049 27.3661 21.905 27.1098 21.6486C26.8534 21.3923 26.7094 21.0446 26.7094 20.682C26.7094 20.3195 26.8534 19.9717 27.1098 19.7154C27.3661 19.459 27.7138 19.315 28.0764 19.315C28.4389 19.315 28.7867 19.459 29.043 19.7154C29.2994 19.9717 29.4434 20.3195 29.4434 20.682C29.4434 21.0446 29.2994 21.3923 29.043 21.6486C28.7867 21.905 28.4389 22.049 28.0764 22.049Z" fill="black"/>
</svg>
