<svg width="20" height="17" viewBox="0 0 20 17" fill="none" xmlns="http://www.w3.org/2000/svg">
<path d="M0.833984 16.5L10.0007 0.666626L19.1673 16.5H0.833984ZM10.0007 14C10.2368 14 10.4348 13.92 10.5948 13.76C10.7548 13.6 10.8345 13.4022 10.834 13.1666C10.8334 12.9311 10.7534 12.7333 10.594 12.5733C10.4345 12.4133 10.2368 12.3333 10.0007 12.3333C9.76454 12.3333 9.56676 12.4133 9.40732 12.5733C9.24787 12.7333 9.16787 12.9311 9.16732 13.1666C9.16676 13.4022 9.24676 13.6002 9.40732 13.7608C9.56787 13.9213 9.76565 14.0011 10.0007 14ZM9.16732 11.5H10.834V7.33329H9.16732V11.5Z" fill="#D2020E"/>
</svg>
