<svg width="141" height="140" viewBox="0 0 141 140" fill="none" xmlns="http://www.w3.org/2000/svg">
<rect x="6.5" y="6" width="128" height="128" rx="64" stroke="#52B46B" stroke-width="12"/>
<path d="M67.9299 115.591V24.6818H73.7537V115.591H67.9299ZM84.7267 53.7656C84.3953 50.6643 82.9985 48.2495 80.5364 46.5213C78.098 44.7931 74.9256 43.929 71.0194 43.929C68.2731 43.929 65.9176 44.3433 63.9526 45.1719C61.9876 46.0005 60.4843 47.125 59.4426 48.5455C58.401 49.9659 57.8683 51.5876 57.8446 53.4105C57.8446 54.9257 58.1879 56.2396 58.8745 57.3523C59.5847 58.465 60.5435 59.4119 61.7509 60.1932C62.9583 60.9508 64.2959 61.59 65.7637 62.1108C67.2315 62.6316 68.7111 63.0696 70.2026 63.4247L77.0208 65.1293C79.767 65.7685 82.4067 66.6326 84.9398 67.7216C87.4966 68.8106 89.7812 70.1837 91.7935 71.8409C93.8295 73.4981 95.4393 75.4986 96.623 77.8423C97.8068 80.1861 98.3986 82.9323 98.3986 86.081C98.3986 90.3423 97.3096 94.0947 95.1316 97.3381C92.9535 100.558 89.8049 103.079 85.6855 104.902C81.5899 106.701 76.6301 107.601 70.8063 107.601C65.1481 107.601 60.2357 106.725 56.0691 104.973C51.9261 103.221 48.6827 100.664 46.339 97.3026C44.0189 93.9408 42.7641 89.8452 42.5748 85.0156H55.5364C55.7258 87.5488 56.507 89.6558 57.8801 91.3366C59.2533 93.0175 61.0407 94.2723 63.2424 95.1009C65.4677 95.9295 67.9535 96.3438 70.6998 96.3438C73.5643 96.3438 76.0738 95.9176 78.2282 95.0653C80.4062 94.1894 82.1107 92.982 83.3418 91.4432C84.5729 89.8807 85.2002 88.0578 85.2239 85.9744C85.2002 84.0805 84.6439 82.518 83.5549 81.2869C82.4659 80.0322 80.9389 78.9905 78.9739 78.1619C77.0326 77.3097 74.7599 76.5521 72.1557 75.8892L63.8816 73.7585C57.892 72.2197 53.1571 69.8878 49.677 66.7628C46.2206 63.6141 44.4924 59.4356 44.4924 54.2273C44.4924 49.9422 45.6524 46.1899 47.9725 42.9702C50.3162 39.7505 53.5004 37.2528 57.525 35.4773C61.5497 33.678 66.1069 32.7784 71.1969 32.7784C76.3579 32.7784 80.8797 33.678 84.7623 35.4773C88.6685 37.2528 91.7343 39.7268 93.9597 42.8991C96.1851 46.0478 97.3333 49.67 97.4043 53.7656H84.7267Z" fill="#52B46B"/>
</svg>
