<svg width="30" height="29" viewBox="0 0 30 29" fill="none" xmlns="http://www.w3.org/2000/svg">
<path fill-rule="evenodd" clip-rule="evenodd" d="M4.13812 3.10359C3.86374 3.10359 3.60061 3.21258 3.4066 3.4066C3.21258 3.60061 3.10359 3.86374 3.10359 4.13812V24.8287C3.10359 25.1031 3.21258 25.3662 3.4066 25.5602C3.60061 25.7543 3.86374 25.8632 4.13812 25.8632H15.0007C15.4122 25.8632 15.8069 26.0267 16.098 26.3178C16.389 26.6088 16.5525 27.0035 16.5525 27.415C16.5525 27.8266 16.389 28.2213 16.098 28.5123C15.8069 28.8033 15.4122 28.9668 15.0007 28.9668H4.13812C3.04062 28.9668 1.98808 28.5309 1.21203 27.7548C0.435979 26.9788 0 25.9262 0 24.8287V4.13812C0 3.04062 0.435979 1.98808 1.21203 1.21203C1.98808 0.435979 3.04062 0 4.13812 0H24.8287C25.9262 0 26.9788 0.435979 27.7548 1.21203C28.5309 1.98808 28.9668 3.04062 28.9668 4.13812V17.0697C28.9668 17.4813 28.8033 17.876 28.5123 18.167C28.2213 18.458 27.8266 18.6215 27.415 18.6215C27.0035 18.6215 26.6088 18.458 26.3178 18.167C26.0267 17.876 25.8632 17.4813 25.8632 17.0697V4.13812C25.8632 3.86374 25.7543 3.60061 25.5602 3.4066C25.3662 3.21258 25.1031 3.10359 24.8287 3.10359H4.13812ZM29.5462 21.1458C29.8368 21.4368 30 21.8312 30 22.2424C30 22.6536 29.8368 23.048 29.5462 23.339L24.3735 28.5116C24.0826 28.8022 23.6881 28.9655 23.2769 28.9655C22.8657 28.9655 22.4713 28.8022 22.1803 28.5116L20.1113 26.4426C19.9588 26.3005 19.8365 26.1292 19.7517 25.9388C19.6669 25.7485 19.6213 25.543 19.6176 25.3346C19.6139 25.1263 19.6523 24.9193 19.7303 24.7261C19.8083 24.5329 19.9245 24.3573 20.0719 24.21C20.2192 24.0626 20.3948 23.9465 20.588 23.8684C20.7812 23.7904 20.9882 23.752 21.1965 23.7557C21.4049 23.7594 21.6104 23.805 21.8007 23.8898C21.9911 23.9746 22.1624 24.0969 22.3045 24.2494L23.2769 25.2218L27.353 21.1458C27.6439 20.8552 28.0383 20.692 28.4496 20.692C28.8608 20.692 29.2552 20.8552 29.5462 21.1458ZM7.75897 6.20718C7.34741 6.20718 6.95271 6.37067 6.66169 6.66169C6.37067 6.95271 6.20718 7.34741 6.20718 7.75897C6.20718 8.17054 6.37067 8.56524 6.66169 8.85626C6.95271 9.14728 7.34741 9.31077 7.75897 9.31077H21.2079C21.6194 9.31077 22.0141 9.14728 22.3051 8.85626C22.5962 8.56524 22.7597 8.17054 22.7597 7.75897C22.7597 7.34741 22.5962 6.95271 22.3051 6.66169C22.0141 6.37067 21.6194 6.20718 21.2079 6.20718H7.75897ZM6.20718 14.4834C6.20718 14.0719 6.37067 13.6772 6.66169 13.3861C6.95271 13.0951 7.34741 12.9316 7.75897 12.9316H21.2079C21.6194 12.9316 22.0141 13.0951 22.3051 13.3861C22.5962 13.6772 22.7597 14.0719 22.7597 14.4834C22.7597 14.895 22.5962 15.2897 22.3051 15.5807C22.0141 15.8717 21.6194 16.0352 21.2079 16.0352H7.75897C7.34741 16.0352 6.95271 15.8717 6.66169 15.5807C6.37067 15.2897 6.20718 14.895 6.20718 14.4834ZM7.75897 19.6561C7.34741 19.6561 6.95271 19.8196 6.66169 20.1106C6.37067 20.4016 6.20718 20.7963 6.20718 21.2079C6.20718 21.6194 6.37067 22.0141 6.66169 22.3051C6.95271 22.5962 7.34741 22.7597 7.75897 22.7597H15.0007C15.4122 22.7597 15.8069 22.5962 16.098 22.3051C16.389 22.0141 16.5525 21.6194 16.5525 21.2079C16.5525 20.7963 16.389 20.4016 16.098 20.1106C15.8069 19.8196 15.4122 19.6561 15.0007 19.6561H7.75897Z" fill="black"/>
</svg>
