<svg width="141" height="112" viewBox="0 0 141 112" fill="none" xmlns="http://www.w3.org/2000/svg">
<path d="M119.5 0C125.07 0 130.411 2.21249 134.349 6.15076C138.288 10.089 140.5 15.4305 140.5 21V91C140.5 96.5695 138.288 101.911 134.349 105.849C130.411 109.788 125.07 112 119.5 112H21.5C15.9305 112 10.589 109.788 6.65076 105.849C2.71249 101.911 0.5 96.5695 0.5 91V21C0.5 15.4305 2.71249 10.089 6.65076 6.15076C10.589 2.21249 15.9305 0 21.5 0H119.5ZM126.5 42H14.5V91C14.5002 92.7145 15.1297 94.3694 16.269 95.6506C17.4083 96.9318 18.9782 97.7504 20.681 97.951L21.5 98H119.5C121.215 97.9998 122.869 97.3703 124.151 96.231C125.432 95.0917 126.25 93.5218 126.451 91.819L126.5 91V42ZM105.5 63C107.284 63.002 109 63.6852 110.298 64.9099C111.595 66.1347 112.376 67.8087 112.48 69.5898C112.585 71.3709 112.005 73.1247 110.86 74.4928C109.715 75.861 108.091 76.7403 106.319 76.951L105.5 77H84.5C82.7158 76.998 80.9998 76.3148 79.7024 75.0901C78.4051 73.8653 77.6244 72.1913 77.5198 70.4102C77.4152 68.6291 77.9947 66.8753 79.1398 65.5072C80.285 64.139 81.9093 63.2597 83.681 63.049L84.5 63H105.5ZM119.5 14H21.5C19.6435 14 17.863 14.7375 16.5503 16.0503C15.2375 17.363 14.5 19.1435 14.5 21V28H126.5V21C126.5 19.1435 125.763 17.363 124.45 16.0503C123.137 14.7375 121.357 14 119.5 14Z" fill="#52B46B"/>
</svg>
